<?xml version="1.0" encoding="utf-8"?>
<!-- Generator: Adobe Illustrator 19.0.1, SVG Export Plug-In . SVG Version: 6.00 Build 0)  -->
<svg version="1.1" id="Ebene_1" xmlns="http://www.w3.org/2000/svg" xmlns:xlink="http://www.w3.org/1999/xlink" x="0px" y="0px"
	 viewBox="0 0 512 512" style="enable-background:new 0 0 512 512;" xml:space="preserve">
<g>
	<path style="fill:#CCCE5F;" d="M240.24,295.57L87.66,311.08C69.05,207.52,50.44,105,31.83,0h161.02c8.43,16,16.83,24.83,25.26,37.1
		l-67.66,49.77L240.24,295.57z"/>
	<path style="fill:#A8CE80;" d="M480.91,419.71c-7.89,6.07-16.13,11.95-24.76,17.6L283.03,297.19l-84.84-197.15l41.86-30.72
		C320.32,186.12,400.64,302.92,480.91,419.71z"/>
	<path style="fill:#E5907C;" d="M420.64,458.36c-104.88,55.28-216.96,58.07-297.66,50.1c-2.67-14.59-2.97-29.21-7.97-43.79v-0.04
		c0-0.04,0.16-1.14,0.12-1.18L204.96,336H205l59.54-5.09L420.64,458.36z"/>
	<path style="fill:#A1D0E5;" d="M153.73,345.01l-46.42,64.69c-3.83-20.04-8.2-40.08-11.8-60.12c-0.04-0.23-0.08-0.5-0.15-0.74
		L153.73,345.01z"/>
</g>
</svg>
