<?xml version="1.0" encoding="utf-8"?>
<!-- Generator: Adobe Illustrator 19.0.1, SVG Export Plug-In . SVG Version: 6.00 Build 0)  -->
<svg version="1.1" id="Ebene_1" xmlns="http://www.w3.org/2000/svg" xmlns:xlink="http://www.w3.org/1999/xlink" x="0px" y="0px"
	 viewBox="0 0 300 156.2" style="enable-background:new 0 0 300 156.2;" xml:space="preserve">
<g>
	<path style="fill:#CCCE5F;" d="M172.5,110.63l-32.16,3.23c-3.92-21.83-7.85-43.61-11.77-65.61h33.94c1.78,3,3.55,5.27,5.32,7.86
		l-14.26,10.51L172.5,110.63z"/>
	<path style="fill:#A8CE80;" d="M223.24,136.8c-1.66,1.28-3.4,2.52-5.22,3.71l-36.49-29.54l-17.88-41.56l8.82-6.48
		C189.38,87.56,206.31,112.18,223.24,136.8z"/>
	<path style="fill:#E5907C;" d="M210.53,144.94c-22.11,11.65-46.04,12.24-63.05,10.56c-0.56-3.07-0.98-6.16-1.98-9.23v-0.01
		c0-0.01,0.34-0.19,0.33-0.2l19.24-26.82h0.01l12.55-1.12L210.53,144.94z"/>
	<path style="fill:#A1D0E5;" d="M154.27,121.05l-9.79,13.63c-0.81-4.22-1.73-8.45-2.49-12.67c-0.01-0.05-0.02-0.11-0.03-0.15
		L154.27,121.05z"/>
	<g>
		<g>
			<path style="fill:#3A3D3B;" d="M56.5,40.26V0h11.06v15.31L79.8,0h12.47L77.65,18.03L93.3,40.26H80.6l-9.98-14.8l-3.06,3.18v11.62
				H56.5z"/>
			<path style="fill:#3A3D3B;" d="M96.75,40.26V0h11.06v40.26H96.75z"/>
			<path style="fill:#3A3D3B;" d="M144.55,30.62v9.64h-28.69V0h28.18v9.64h-17.12v5.67h14.63v8.96h-14.63v6.35H144.55z"/>
			<path style="fill:#3A3D3B;" d="M148.92,32.04l18.26-22.4h-17.41V0h30.73v8.22l-17.12,22.4h17.46v9.64h-31.92V32.04z"/>
		</g>
		<g>
			<path style="fill:#3A3D3B;" d="M90.62,78.27c0,2.41-0.65,4.37-1.95,5.88c-1.3,1.51-3.04,2.62-5.23,3.33
				c-2.19,0.72-4.6,1.07-7.23,1.07H56.49V48.44h23.28c1.88,0,3.51,0.5,4.89,1.5c1.37,1,2.43,2.29,3.16,3.87
				c0.73,1.58,1.1,3.22,1.1,4.92c0,1.85-0.48,3.64-1.44,5.37c-0.96,1.73-2.4,3.03-4.32,3.9c2.3,0.68,4.11,1.86,5.45,3.56
				C89.95,73.25,90.62,75.49,90.62,78.27z M67.5,57.82v6.16h7.52c0.49,0,0.96-0.08,1.41-0.25c0.45-0.17,0.83-0.48,1.13-0.93
				c0.3-0.45,0.45-1.09,0.45-1.92c0-0.75-0.12-1.35-0.37-1.78c-0.25-0.43-0.56-0.75-0.96-0.96c-0.4-0.21-0.84-0.31-1.33-0.31H67.5z
				 M79.43,76.01c0-0.68-0.12-1.27-0.37-1.78c-0.25-0.51-0.57-0.91-0.99-1.21c-0.41-0.3-0.9-0.45-1.47-0.45h-9.1v6.72h8.7
				c0.6,0,1.15-0.13,1.64-0.4c0.49-0.26,0.88-0.64,1.16-1.13C79.29,77.28,79.43,76.69,79.43,76.01z"/>
			<path style="fill:#3A3D3B;" d="M96.61,88.56V48.44h11.02v30.51h18.2v9.61H96.61z"/>
		</g>
		<g>
			<path style="fill:#3A3D3B;" d="M0,136.71V96.59h18.42c1.96,0,3.77,0.4,5.43,1.19c1.66,0.79,3.09,1.86,4.29,3.19
				c1.2,1.34,2.14,2.84,2.8,4.49c0.66,1.66,0.99,3.33,0.99,5.03c0,1.55-0.23,3.03-0.68,4.46c-0.45,1.43-1.11,2.74-1.98,3.93
				c-0.87,1.19-1.9,2.21-3.11,3.08l8.48,14.75H22.55l-7.06-12.32h-4.46v12.32H0z M11.02,114.79h6.95c0.45,0,0.88-0.17,1.3-0.51
				c0.41-0.34,0.76-0.83,1.05-1.47c0.28-0.64,0.42-1.41,0.42-2.32c0-0.94-0.16-1.72-0.48-2.35c-0.32-0.62-0.72-1.1-1.19-1.44
				c-0.47-0.34-0.93-0.51-1.38-0.51h-6.67V114.79z"/>
			<path style="fill:#3A3D3B;" d="M39.27,136.71V96.59h11.02v40.12H39.27z"/>
			<path style="fill:#3A3D3B;" d="M66.17,96.59l7.29,12.66l7.29-12.66h11.87l-12.6,20.34l12.15,19.78H80.3l-6.84-12.09l-6.84,12.09
				H54.7l12.15-19.78l-12.6-20.34H66.17z"/>
			<path style="fill:#3A3D3B;" d="M96.57,136.71V96.59H112c4.45,0,8.17,0.9,11.16,2.68c3,1.79,5.26,4.2,6.78,7.23
				c1.53,3.03,2.29,6.39,2.29,10.09c0,4.07-0.84,7.61-2.51,10.62c-1.68,3.01-4.03,5.35-7.06,7.01c-3.03,1.66-6.58,2.49-10.65,2.49
				H96.57z M121.04,116.6c0-2.07-0.36-3.89-1.07-5.45c-0.72-1.56-1.75-2.78-3.11-3.64c-1.36-0.87-2.98-1.3-4.86-1.3h-4.41v20.91H112
				c1.92,0,3.55-0.45,4.89-1.36c1.34-0.9,2.36-2.16,3.08-3.76C120.68,120.39,121.04,118.59,121.04,116.6z"/>
		</g>
		<g>
			<path style="fill:#3A3D3B;" d="M190.39,68.16c0-2.45,0.46-4.85,1.38-7.2c0.92-2.35,2.27-4.49,4.04-6.41
				c1.77-1.92,3.93-3.46,6.47-4.61c2.54-1.15,5.41-1.72,8.62-1.72c3.84,0,7.2,0.8,10.06,2.4c2.86,1.6,4.99,3.72,6.38,6.36
				l-8.42,5.99c-0.49-1.32-1.2-2.34-2.12-3.05c-0.92-0.72-1.92-1.21-2.99-1.5c-1.07-0.28-2.12-0.42-3.14-0.42
				c-1.58,0-2.95,0.31-4.1,0.93c-1.15,0.62-2.09,1.44-2.83,2.46c-0.73,1.02-1.28,2.15-1.64,3.39c-0.36,1.24-0.54,2.49-0.54,3.73
				c0,1.39,0.21,2.73,0.62,4.01c0.41,1.28,1.02,2.42,1.81,3.42c0.79,1,1.76,1.78,2.91,2.35c1.15,0.57,2.44,0.85,3.87,0.85
				c1.02,0,2.05-0.16,3.11-0.48c1.05-0.32,2.01-0.84,2.88-1.55c0.87-0.72,1.53-1.68,1.98-2.88l8.98,5.37
				c-0.79,1.96-2.11,3.64-3.96,5.03c-1.85,1.39-3.94,2.46-6.27,3.19c-2.34,0.73-4.65,1.1-6.95,1.1c-2.98,0-5.7-0.59-8.17-1.78
				c-2.47-1.19-4.6-2.77-6.39-4.75c-1.79-1.98-3.17-4.2-4.15-6.67C190.88,73.24,190.39,70.72,190.39,68.16z"/>
			<path style="fill:#3A3D3B;" d="M232.77,88.62V48.5h11.02v15.26L256,48.5h12.43l-14.58,17.97l15.6,22.15h-12.66l-9.95-14.75
				l-3.05,3.16v11.58H232.77z"/>
		</g>
		<g>
			<path style="fill:#3A3D3B;" d="M233.21,136.82V96.7h18.42c1.96,0,3.77,0.4,5.43,1.19c1.66,0.79,3.09,1.86,4.29,3.19
				c1.2,1.34,2.14,2.84,2.8,4.49c0.66,1.66,0.99,3.33,0.99,5.03c0,1.55-0.23,3.03-0.68,4.46c-0.45,1.43-1.11,2.74-1.98,3.93
				c-0.87,1.19-1.9,2.21-3.11,3.08l8.48,14.75h-12.09l-7.06-12.32h-4.46v12.32H233.21z M244.23,114.89h6.95
				c0.45,0,0.88-0.17,1.3-0.51c0.41-0.34,0.76-0.83,1.05-1.47c0.28-0.64,0.42-1.41,0.42-2.32c0-0.94-0.16-1.72-0.48-2.35
				s-0.72-1.1-1.19-1.44c-0.47-0.34-0.93-0.51-1.38-0.51h-6.67V114.89z"/>
			<path style="fill:#3A3D3B;" d="M272.48,136.82V96.7H300v9.61h-16.5v6.67h13.45v8.93H283.5v14.92H272.48z"/>
		</g>
	</g>
</g>
</svg>
