<?xml version="1.0" encoding="utf-8"?>
<!-- Generator: Adobe Illustrator 19.0.1, SVG Export Plug-In . SVG Version: 6.00 Build 0)  -->
<svg version="1.1" id="Ebene_1" xmlns="http://www.w3.org/2000/svg" xmlns:xlink="http://www.w3.org/1999/xlink" x="0px" y="0px"
	 viewBox="-105 178.8 300 156.2" style="enable-background:new -105 178.8 300 156.2;" xml:space="preserve">
<style type="text/css">
	.st0{fill:#4682B4;}
</style>
<g id="Schrift">
</g>
<g id="Grafik">
	<g>
		<path class="st0" d="M67.5,289.4l-32.2,3.5c-3.9-21.8-7.9-43.3-11.8-65.3h33.9c1.8,2,3.6,5,5.3,7.6l-14.3,10.4L67.5,289.4z"/>
		<path class="st0" d="M118.2,315.6c-1.7,1.3-3.4,2.5-5.2,3.7l-36.5-29.5l-17.9-41.6l8.8-6.5C84.4,266.4,101.3,291,118.2,315.6z"/>
		<path class="st0" d="M105.5,323.7C83.4,335.4,60,336,43,334.3c-0.6-3.1-0.5-6.2-1.5-9.2v0c0,0-0.2,0.1-0.2,0.1l18.7-26.6h0
			l12.6-1.4L105.5,323.7z"/>
		<path class="st0" d="M49.3,299.9l-9.8,13.6c-0.8-4.2-1.7-8.4-2.5-12.7c0,0,0-0.1,0-0.1L49.3,299.9z"/>
		<g>
			<g>
				<path class="st0" d="M-48.5,219.1v-40.3h11.1v15.3l12.2-15.3h12.5l-14.6,18l15.7,22.2h-12.7l-10-14.8l-3.1,3.2v11.6H-48.5z"/>
				<path class="st0" d="M-8.2,219.1v-40.3H2.8v40.3H-8.2z"/>
				<path class="st0" d="M39.6,209.4v9.6H10.9v-40.3H39v9.6H21.9v5.7h14.6v9H21.9v6.3H39.6z"/>
				<path class="st0" d="M43.9,210.8l18.3-22.4H44.8v-9.6h30.7v8.2l-17.1,22.4h17.5v9.6H43.9V210.8z"/>
			</g>
			<g>
				<path class="st0" d="M-14.4,257.1c0,2.4-0.7,4.4-1.9,5.9c-1.3,1.5-3,2.6-5.2,3.3c-2.2,0.7-4.6,1.1-7.2,1.1h-19.7v-40.1h23.3
					c1.9,0,3.5,0.5,4.9,1.5c1.4,1,2.4,2.3,3.2,3.9s1.1,3.2,1.1,4.9c0,1.9-0.5,3.6-1.4,5.4c-1,1.7-2.4,3-4.3,3.9
					c2.3,0.7,4.1,1.9,5.4,3.6C-15.1,252.1-14.4,254.3-14.4,257.1z M-37.5,236.6v6.2h7.5c0.5,0,1-0.1,1.4-0.2
					c0.4-0.2,0.8-0.5,1.1-0.9c0.3-0.5,0.4-1.1,0.4-1.9c0-0.8-0.1-1.4-0.4-1.8c-0.2-0.4-0.6-0.8-1-1c-0.4-0.2-0.8-0.3-1.3-0.3
					L-37.5,236.6L-37.5,236.6z M-25.6,254.8c0-0.7-0.1-1.3-0.4-1.8c-0.2-0.5-0.6-0.9-1-1.2c-0.4-0.3-0.9-0.4-1.5-0.4h-9.1v6.7h8.7
					c0.6,0,1.2-0.1,1.6-0.4c0.5-0.3,0.9-0.6,1.2-1.1C-25.7,256.1-25.6,255.5-25.6,254.8z"/>
				<path class="st0" d="M-8.4,267.4v-40.1h11v30.5h18.2v9.6H-8.4z"/>
			</g>
			<g>
				<path class="st0" d="M-105,315.5v-40.1h18.4c2,0,3.8,0.4,5.4,1.2c1.7,0.8,3.1,1.9,4.3,3.2c1.2,1.3,2.1,2.8,2.8,4.5
					c0.7,1.7,1,3.3,1,5c0,1.5-0.2,3-0.7,4.5c-0.5,1.4-1.1,2.7-2,3.9s-1.9,2.2-3.1,3.1l8.5,14.8h-12.1l-7.1-12.3H-94v12.3H-105
					L-105,315.5z M-94,293.6h6.9c0.4,0,0.9-0.2,1.3-0.5c0.4-0.3,0.8-0.8,1-1.5c0.3-0.6,0.4-1.4,0.4-2.3c0-0.9-0.2-1.7-0.5-2.4
					c-0.3-0.6-0.7-1.1-1.2-1.4s-0.9-0.5-1.4-0.5H-94V293.6z"/>
				<path class="st0" d="M-65.7,315.5v-40.1h11v40.1H-65.7L-65.7,315.5z"/>
				<path class="st0" d="M-38.8,275.4l7.3,12.7l7.3-12.7h11.9L-25,295.7l12.2,19.8h-11.9l-6.8-12.1l-6.8,12.1h-11.9l12.1-19.8
					l-12.6-20.3H-38.8z"/>
				<path class="st0" d="M-8.4,315.5v-40.1H7c4.4,0,8.2,0.9,11.2,2.7c3,1.8,5.3,4.2,6.8,7.2c1.5,3,2.3,6.4,2.3,10.1
					c0,4.1-0.8,7.6-2.5,10.6c-1.7,3-4,5.3-7.1,7c-3,1.7-6.6,2.5-10.7,2.5H-8.4z M16,295.4c0-2.1-0.4-3.9-1.1-5.4
					c-0.7-1.6-1.8-2.8-3.1-3.6c-1.4-0.9-3-1.3-4.9-1.3H2.6v20.9H7c1.9,0,3.6-0.4,4.9-1.4c1.3-0.9,2.4-2.2,3.1-3.8
					C15.7,299.2,16,297.4,16,295.4z"/>
			</g>
			<g>
				<path class="st0" d="M85.4,247c0-2.4,0.5-4.8,1.4-7.2s2.3-4.5,4-6.4c1.8-1.9,3.9-3.5,6.5-4.6c2.5-1.2,5.4-1.7,8.6-1.7
					c3.8,0,7.2,0.8,10.1,2.4c2.9,1.6,5,3.7,6.4,6.4l-8.4,6c-0.5-1.3-1.2-2.3-2.1-3.1c-0.9-0.7-1.9-1.2-3-1.5
					c-1.1-0.3-2.1-0.4-3.1-0.4c-1.6,0-2.9,0.3-4.1,0.9c-1.1,0.6-2.1,1.4-2.8,2.5c-0.7,1-1.3,2.2-1.6,3.4c-0.4,1.2-0.5,2.5-0.5,3.7
					c0,1.4,0.2,2.7,0.6,4c0.4,1.3,1,2.4,1.8,3.4s1.8,1.8,2.9,2.4c1.1,0.6,2.4,0.8,3.9,0.8c1,0,2.1-0.2,3.1-0.5
					c1.1-0.3,2-0.8,2.9-1.6c0.9-0.7,1.5-1.7,2-2.9l9,5.4c-0.8,2-2.1,3.6-4,5c-1.9,1.4-3.9,2.5-6.3,3.2c-2.3,0.7-4.6,1.1-6.9,1.1
					c-3,0-5.7-0.6-8.2-1.8s-4.6-2.8-6.4-4.8c-1.8-2-3.2-4.2-4.1-6.7C85.9,252,85.4,249.5,85.4,247z"/>
				<path class="st0" d="M127.8,267.4v-40.1h11v15.3l12.2-15.3h12.4l-14.6,18l15.6,22.2h-12.7l-9.9-14.8l-3.1,3.2v11.6L127.8,267.4
					L127.8,267.4z"/>
			</g>
			<g>
				<path class="st0" d="M128.2,315.6v-40.1h18.4c2,0,3.8,0.4,5.4,1.2c1.7,0.8,3.1,1.9,4.3,3.2c1.2,1.3,2.1,2.8,2.8,4.5
					c0.7,1.7,1,3.3,1,5c0,1.6-0.2,3-0.7,4.5c-0.5,1.4-1.1,2.7-2,3.9c-0.9,1.2-1.9,2.2-3.1,3.1l8.5,14.8h-12.1l-7.1-12.3h-4.5v12.3
					H128.2z M139.2,293.7h6.9c0.4,0,0.9-0.2,1.3-0.5c0.4-0.3,0.8-0.8,1.1-1.5c0.3-0.6,0.4-1.4,0.4-2.3c0-0.9-0.2-1.7-0.5-2.4
					c-0.3-0.6-0.7-1.1-1.2-1.4s-0.9-0.5-1.4-0.5h-6.7V293.7z"/>
				<path class="st0" d="M167.5,315.6v-40.1H195v9.6h-16.5v6.7H192v8.9h-13.5v14.9L167.5,315.6L167.5,315.6z"/>
			</g>
		</g>
	</g>
</g>
</svg>
